<svg width="32" height="32" viewBox="0 0 32 32" fill="none" xmlns="http://www.w3.org/2000/svg">
    <path fill-rule="evenodd" clip-rule="evenodd" d="M21.7651 19.8624L28.9384 27.0357C29.1905 27.288 29.3321 27.6302 29.332 27.9869C29.3318 28.3436 29.19 28.6856 28.9377 28.9377C28.6854 29.1899 28.3433 29.3314 27.9866 29.3313C27.6299 29.3312 27.2879 29.1894 27.0357 28.9371L19.8624 21.7637C17.718 23.4246 15.0214 24.2062 12.3212 23.9495C9.62102 23.6928 7.12003 22.4171 5.32703 20.3819C3.53403 18.3466 2.58371 15.7048 2.66939 12.9938C2.75507 10.2828 3.87032 7.7062 5.78826 5.78826C7.7062 3.87032 10.2828 2.75507 12.9938 2.66939C15.7048 2.58371 18.3466 3.53403 20.3819 5.32703C22.4171 7.12003 23.6928 9.62102 23.9495 12.3212C24.2062 15.0214 23.4246 17.718 21.7637 19.8624H21.7651ZM13.3317 21.3304C15.4535 21.3304 17.4883 20.4875 18.9886 18.9872C20.4889 17.487 21.3317 15.4521 21.3317 13.3304C21.3317 11.2087 20.4889 9.17383 18.9886 7.67353C17.4883 6.17324 15.4535 5.33039 13.3317 5.33039C11.21 5.33039 9.17516 6.17324 7.67487 7.67353C6.17458 9.17383 5.33172 11.2087 5.33172 13.3304C5.33172 15.4521 6.17458 17.487 7.67487 18.9872C9.17516 20.4875 11.21 21.3304 13.3317 21.3304Z" fill="#AEAEAE"/>
</svg>
